<?xml version="1.0" encoding="UTF-8" standalone="no"?>
<!-- Created with Inkscape (http://www.inkscape.org/) -->
<svg
   xmlns:svg="http://www.w3.org/2000/svg"
   xmlns="http://www.w3.org/2000/svg"
   version="1.0"
   width="300"
   height="300"
   viewBox="0 0 63.481 48.369"
   id="Layer_1"
   xml:space="preserve"
   style="overflow:visible"><defs
   id="defs6" />
<path
   d="M 57.761363,7.4564701 C 52.531483,1.137806 3.0616546,34.071163 5.8720178,40.259544 C 3.9270974,34.983135 53.56443,2.6183639 57.761363,7.4564701 z M 60.40422,7.4334144 C 60.581031,7.2752144 60.376303,5.6046082 60.283245,5.679055 C 60.376303,5.6046082 59.16901,4.9780486 58.506887,4.767786 C 46.65125,-1.1693376 31.593349,-0.97461971 19.923831,7.0004841 C 9.2035063,14.324177 3.6479223,26.877751 3.9177922,39.412714 C 0.56769044,37.849333 0.53977294,38.603106 3.9550156,40.473579 C 4.2062728,45.638318 5.1368564,46.010552 5.183385,41.115681 C 17.513618,47.322675 32.998531,47.164476 44.695967,38.966033 C 55.28601,31.558587 61.089081,19.377631 60.40422,7.4334144 z M 42.416038,36.798704 C 31.649185,44.31782 17.625288,45.006452 5.8720178,40.260475 L 5.2113032,39.9813 C 5.6393709,28.24664 11.129815,16.707402 21.170812,9.8396951 C 32.458793,2.1158481 46.519912,1.4086062 58.152208,6.7315451 C 58.152208,18.25124 52.698988,29.605292 42.416038,36.798704 z"
   id="path3"
   style="fill:#006600;fill-rule:evenodd" />
</svg>